<svg xmlns="http://www.w3.org/2000/svg" viewBox="-113.8 167 412 262.3" enable-background="new -113.8 167 412 262.3"><path d="M76.2 194.2c7.8 10.9 11.8 23.9 11.8 39.1 0 15.6-4 28.2-11.9 37.7-4.4 5.3-10.9 10.2-19.5 14.6 13.1 4.7 22.9 12.3 29.6 22.6 6.6 10.3 10 22.8 10 37.5 0 15.2-3.8 28.8-11.4 40.8-4.8 8-10.9 14.7-18.1 20.1-8.2 6.2-17.8 10.5-28.9 12.8-11.1 2.3-23.2 3.5-36.2 3.5h-115.3v-255.9h123.6c31.2.4 53.3 9.5 66.3 27.2zm-138.9 17.2v56.4h62.2c11.1 0 20.1-2.1 27.1-6.3s10.4-11.7 10.4-22.5c0-11.9-4.6-19.8-13.7-23.6-7.9-2.7-18-4-30.2-4h-55.8zm0 98.8v68.2h62.1c11.1 0 19.7-1.5 25.9-4.5 11.2-5.6 16.8-16.2 16.8-31.9 0-13.3-5.4-22.5-16.3-27.4-6.1-2.8-14.6-4.2-25.6-4.3l-62.9-.1zm311.5-72.7c13.2 5.9 24.1 15.2 32.7 28 7.7 11.2 12.8 24.3 15.1 39.1 1.3 8.7 1.9 21.2 1.6 37.6h-137.8c.8 19 7.4 32.3 19.8 39.9 7.6 4.7 16.6 7.1 27.3 7.1 11.3 0 20.4-2.9 27.5-8.7 3.8-3.1 7.2-7.5 10.2-13h50.5c-1.3 11.2-7.4 22.6-18.3 34.2-17 18.4-40.7 27.6-71.2 27.6-25.2 0-47.4-7.8-66.6-23.3-19.3-15.5-28.9-40.8-28.9-75.8 0-32.8 8.7-57.9 26.1-75.4 17.4-17.5 39.9-26.2 67.7-26.2 16.3 0 31.1 3 44.3 8.9zm-74 42.7c-7 7.2-11.4 17-13.2 29.3h85.2c-.9-13.1-5.3-23.1-13.2-29.9-7.9-6.8-17.7-10.2-29.3-10.2-12.7 0-22.5 3.6-29.5 10.8zm81.9-98.5h-111.2v25.8h111.2v-25.8z"/></svg>