<svg xmlns="http://www.w3.org/2000/svg" viewBox="0 0 461.1 461.1" enable-background="new 0 0 461.1 461.1"><path d="M443.4 17.7v425.7h-425.7v-425.7h425.7m17.7-17.7h-461.1v461.1h461.1v-461.1zm-390.2 132.2l7.8-12.6c5 4.7 15.2 9.4 23.7 9.4 7.8 0 11.5-3.1 11.5-7.4 0-11.4-40.7-2.1-40.7-29.1 0-11.5 10.1-21.6 28.1-21.6 11.6 0 20.9 4 27.7 9.4l-7.2 12.3c-4.1-4.4-11.9-7.9-20.3-7.9-6.5 0-10.8 3-10.8 6.8 0 10.2 40.6 1.7 40.6 29.4 0 12.5-10.6 22-29.7 22-11.9 0-23.4-4-30.7-10.7zm279.4 258v-68.5h18v9.4c4.8-6.1 13.3-11.1 21.9-11.1v17.6c-1.3-.3-3-.4-5-.4-6 0-13.9 3.4-16.9 7.8v45.3h-18zm-161.4-112.7l88.6-88.6"/><path d="M271.185 182.634l12.516 12.516-88.6 88.6-12.516-12.516z"/></svg>