<svg xmlns="http://www.w3.org/2000/svg" viewBox="51.7 276.4 739.4 42.6" enable-background="new 51.7 276.4 739.4 42.6"><path d="M51.7 312.4l5.6-8c3 3 7.5 5.4 13.1 5.4 3.6 0 5.9-1.4 5.9-3.4 0-5.6-23.3-1.1-23.3-16.9 0-6.9 5.9-13.1 16.4-13.1 6.6 0 12.3 2 16.7 5.7l-5.8 7.6c-3.4-2.8-8-4.3-12-4.3-3.1 0-4.4 1.2-4.4 3 0 5.2 23.3 1.4 23.3 16.7 0 8.3-6.1 13.8-17.2 13.8-8.3.1-14.1-2.5-18.3-6.5zm56.3 5.8v-31.8h-11.5v-9.3h33.6v9.3h-11.5v31.8h-10.6zm33.1 0v-41.1h30.2v9.3h-19.5v6.4h19.1v9.3h-19.1v7h19.5v9.3l-30.2-.2zm44 0v-41.1h30.2v9.3h-19.5v6.4h19.1v9.3h-19.1v16.2h-10.7zm68.6 0l-2.1-5.9h-16.2l-2.1 5.9h-12l15.5-41.1h13.3l15.5 41.1h-11.9zm-10.2-30.6l-5.2 15.5h10.5l-5.3-15.5zm60.3 30.6l-17.4-23.8v23.8h-10.6v-41.1h10.9l16.6 22.6v-22.6h10.7v41.1h-10.2zm70.6 0l-6.9-13.8h-5.4v13.8h-10.6v-41.1h20.6c9.1 0 14.3 6.1 14.3 13.7 0 7.1-4.4 10.9-8.2 12.3l8.4 15.1h-12.2zm1.2-27.5c0-2.8-2.4-4.4-5.1-4.4h-8.4v8.8h8.4c2.7.1 5.1-1.5 5.1-4.4zm23.6 27.5v-41.1h30.2v9.3h-19.5v6.4h19.1v9.3h-19.1v7h19.5v9.3l-30.2-.2zm44.1 0v-41.1h10.6v41.1h-10.6zm53.1 0l-17.4-23.8v23.8h-10.6v-41.1h10.9l16.6 22.6v-22.6h10.6v41.1h-10.1zm24.9 0v-41.1h20.6c9.3 0 14.3 6.2 14.3 13.7 0 7.4-5.1 13.6-14.3 13.6h-10v13.8h-10.6zm24.1-27.4c0-2.8-2.1-4.4-4.9-4.4h-8.6v8.8h8.6c2.8 0 4.9-1.6 4.9-4.4zm44.9 27.4l-6.9-13.8h-5.4v13.8h-10.6v-41.1h20.6c9.1 0 14.3 6.1 14.3 13.7 0 7.1-4.4 10.9-8.2 12.3l8.4 15.1h-12.2zm1.2-27.5c0-2.8-2.4-4.4-5.1-4.4h-8.4v8.8h8.4c2.8.1 5.1-1.5 5.1-4.4zm23.7 27.5v-41.1h30.2v9.3h-19.5v6.4h19.1v9.3h-19.1v7h19.5v9.3l-30.2-.2zm41.3-20.5c0-12.7 9.6-21.3 22.3-21.3 10 0 15.2 5.6 17.9 11l-9.1 4.3c-1.4-3.3-4.9-6-8.8-6-6.7 0-11.5 5.2-11.5 11.9 0 6.8 4.7 11.9 11.5 11.9 4 0 7.4-2.7 8.8-6l9.1 4.3c-2.7 5.3-8 11-17.9 11-12.7.2-22.3-8.5-22.3-21.1zm79.4 20.5v-16.5h-17.1v16.5h-10.6v-41.1h10.6v15.3h17.1v-15.3h10.6v41.1h-10.6zm33.2 0v-31.8h-11.5v-9.3h33.6v9.3h-11.5v31.8h-10.6z"/></svg>