<svg xmlns="http://www.w3.org/2000/svg" viewBox="0 0 973.1 56" enable-background="new 0 0 973.1 56"><path d="M0 47.4l7.4-10.5c3.9 3.9 9.9 7.1 17.3 7.1 4.8 0 7.7-1.9 7.7-4.5 0-7.4-30.7-1.5-30.7-22.3 0-9.1 7.7-17.2 21.6-17.2 8.7 0 16.2 2.6 22 7.5l-7.6 10c-4.6-3.6-10.5-5.5-15.9-5.5-4.1 0-5.8 1.6-5.8 3.9 0 6.9 30.6 1.9 30.6 22 0 10.9-8 18.1-22.6 18.1-10.9 0-18.6-3.4-24-8.6zM74 55v-41.9h-15.2v-12.2h44.2v12.2h-15v41.9h-14zM117.6 55v-54.1h39.7v12.2h-25.7v8.4h25.1v12.2h-25.1v9.2h25.7v12.1h-39.7zM175.5 55v-54.1h39.7v12.2h-25.7v8.4h25.1v12.2h-25.1v21.3h-14zM265.8 55l-2.7-7.8h-21.3l-2.7 7.8h-15.8l20.4-54.1h17.5l20.4 54.1h-15.8zm-13.4-40.3l-6.9 20.3h13.8l-6.9-20.3zM331.7 55l-22.9-31.3v31.3h-14v-54.1h14.4l21.9 29.8v-29.8h14v54.1h-13.4zM424.7 55l-9.1-18.2h-7.1v18.2h-14v-54.1h27.1c12 0 18.8 8 18.8 18 0 9.4-5.8 14.4-10.8 16.2l11 19.9h-15.9zm1.5-36.2c0-3.7-3.1-5.8-6.7-5.8h-11v11.6h11c3.6.1 6.7-2 6.7-5.8zM457.3 55v-54.1h39.7v12.2h-25.7v8.4h25.1v12.2h-25.1v9.2h25.7v12.1h-39.7zM515.3 55v-54.1h14v54.1h-14zM585.2 55l-22.9-31.3v31.3h-14v-54.1h14.4l21.9 29.8v-29.8h14v54.1h-13.4zM617.9 55v-54.1h27.1c12.2 0 18.8 8.2 18.8 18 0 9.7-6.7 17.9-18.8 17.9h-13.1v18.2h-14zm31.8-36.1c0-3.7-2.8-5.8-6.5-5.8h-11.3v11.6h11.3c3.7 0 6.5-2.1 6.5-5.8zM708.8 55l-9.1-18.2h-7.1v18.2h-14v-54.1h27.1c12 0 18.8 8 18.8 18 0 9.4-5.8 14.4-10.8 16.2l11 19.9h-15.9zm1.5-36.2c0-3.7-3.1-5.8-6.7-5.8h-11v11.6h11c3.7.1 6.7-2 6.7-5.8zM741.5 55v-54.1h39.7v12.2h-25.7v8.4h25.1v12.2h-25.1v9.2h25.7v12.1h-39.7zM795.8 28c0-16.7 12.7-28 29.3-28 13.1 0 20 7.4 23.6 14.5l-12 5.7c-1.8-4.3-6.4-7.9-11.6-7.9-8.8 0-15.1 6.8-15.1 15.7s6.2 15.7 15.1 15.7c5.2 0 9.8-3.6 11.6-7.9l12 5.7c-3.5 7-10.5 14.5-23.6 14.5-16.6 0-29.3-11.4-29.3-28zM900.4 55v-21.7h-22.5v21.7h-14v-54.1h14v20.2h22.5v-20.2h14v54.1h-14zM944.1 55v-41.9h-15.2v-12.2h44.2v12.2h-15.1v41.9h-13.9z"/></svg>