<svg xmlns="http://www.w3.org/2000/svg" viewBox="-115 120 412 356.5" enable-background="new -115 120 412 356.5"><path d="M296.8 202.5c-1.8 40.1-29.9 95.1-84 164.8-56 72.8-103.4 109.2-142.2 109.2-24 0-44.3-22.2-60.9-66.5l-33.3-122c-12.3-44.3-25.5-66.5-39.7-66.5-3.1 0-13.9 6.5-32.3 19.4l-19.4-25c20.3-17.9 40.4-35.7 60.1-53.6 27.1-23.4 47.5-35.8 61-37 32.1-3.1 51.8 18.8 59.2 65.8 8 50.6 13.5 82.1 16.7 94.5 9.2 42 19.4 63 30.5 63 8.6 0 21.6-13.6 38.9-40.9 17.2-27.3 26.5-48 27.7-62.2 2.5-23.5-6.8-35.3-27.7-35.3-9.9 0-20 2.3-30.5 6.8 20.2-66.3 58.9-98.6 116-96.7 42.4 1 62.3 28.5 59.9 82.2z"/></svg>