<svg xmlns="http://www.w3.org/2000/svg" width="512" height="512" viewBox="0 0 512 512"><path d="M256 50c-113.771 0-206 92.229-206 206s92.229 206 206 206 206-92.229 206-206-92.229-206-206-206zm120.171 161.68c-1.104 24.011-17.866 56.89-50.29 98.621-33.527 43.589-61.893 65.385-85.094 65.385-14.369 0-26.536-13.268-36.471-39.82-6.636-24.336-13.269-48.672-19.901-73.007-7.378-26.538-15.292-39.821-23.756-39.821-1.843 0-8.3 3.884-19.35 11.618l-11.602-14.951c12.168-10.696 24.174-21.392 35.985-32.102 16.229-14.028 28.414-21.407 36.536-22.153 19.189-1.843 31.003 11.279 35.436 39.37 4.788 30.306 8.106 49.155 9.967 56.532 5.532 25.146 11.616 37.705 18.266 37.705 5.161 0 12.913-8.156 23.252-24.466 10.322-16.312 15.859-28.722 16.602-37.249 1.475-14.078-4.062-21.133-16.602-21.133-5.905 0-11.989 1.36-18.251 4.045 12.119-39.707 35.272-58.995 69.447-57.896 25.338.748 37.281 17.186 35.826 49.322z"/></svg>