<svg style="display: none;"><symbol viewBox="-113.8 167 412 262.3" id="icon-behance"><title>behance</title><path d="M76.2 194.2c7.8 10.9 11.8 23.9 11.8 39.1 0 15.6-4 28.2-11.9 37.7-4.4 5.3-10.9 10.2-19.5 14.6 13.1 4.7 22.9 12.3 29.6 22.6 6.6 10.3 10 22.8 10 37.5 0 15.2-3.8 28.8-11.4 40.8-4.8 8-10.9 14.7-18.1 20.1-8.2 6.2-17.8 10.5-28.9 12.8-11.1 2.3-23.2 3.5-36.2 3.5h-115.3v-255.9h123.6c31.2.4 53.3 9.5 66.3 27.2zm-138.9 17.2v56.4h62.2c11.1 0 20.1-2.1 27.1-6.3s10.4-11.7 10.4-22.5c0-11.9-4.6-19.8-13.7-23.6-7.9-2.7-18-4-30.2-4h-55.8zm0 98.8v68.2h62.1c11.1 0 19.7-1.5 25.9-4.5 11.2-5.6 16.8-16.2 16.8-31.9 0-13.3-5.4-22.5-16.3-27.4-6.1-2.8-14.6-4.2-25.6-4.3l-62.9-.1zm311.5-72.7c13.2 5.9 24.1 15.2 32.7 28 7.7 11.2 12.8 24.3 15.1 39.1 1.3 8.7 1.9 21.2 1.6 37.6h-137.8c.8 19 7.4 32.3 19.8 39.9 7.6 4.7 16.6 7.1 27.3 7.1 11.3 0 20.4-2.9 27.5-8.7 3.8-3.1 7.2-7.5 10.2-13h50.5c-1.3 11.2-7.4 22.6-18.3 34.2-17 18.4-40.7 27.6-71.2 27.6-25.2 0-47.4-7.8-66.6-23.3-19.3-15.5-28.9-40.8-28.9-75.8 0-32.8 8.7-57.9 26.1-75.4 17.4-17.5 39.9-26.2 67.7-26.2 16.3 0 31.1 3 44.3 8.9zm-74 42.7c-7 7.2-11.4 17-13.2 29.3h85.2c-.9-13.1-5.3-23.1-13.2-29.9-7.9-6.8-17.7-10.2-29.3-10.2-12.7 0-22.5 3.6-29.5 10.8zm81.9-98.5h-111.2v25.8h111.2v-25.8z"/></symbol><symbol viewBox="-114.3 145.7 412.5 305.2" id="icon-email"><title>email</title><path d="M-114.3 145.7v305.2h412.59999999999997v-305.2h-412.6zm365.8 35l-159.6 122-159.4-122h319zm-330.8 35.1l85.5 65.4-85.5 85.5v-150.9zm.4 200.1l113.2-113.2 57.7 44.1 57.4-43.9 112.9 112.9-341.2.1zm342.2-48.5l-85.9-85.9 85.9-65.7v151.6z"/></symbol><symbol viewBox="-114.1 92.3 412 412" id="icon-facebook"><title>facebook</title><path d="M247.9 92.3h-312c-27.6 0-50 22.4-50 50v312c0 27.6 22.4 50 50 50h312c27.6 0 50-22.4 50-50v-312c0-27.6-22.3-50-50-50zm-88.2 110.6h-32c-11.3 0-13.6 4.6-13.6 16.3v28.2h45.6l-4.4 49.6h-41.2v148h-59.2v-147.3h-30.7v-50.2h30.7v-39.5c0-37.1 19.8-56.5 63.8-56.5h40.9v51.4z"/></symbol><symbol viewBox="0 0 1108 188.3" id="icon-logo_quer_schwarz"><title>logo_quer_schwarz</title><path d="M1095 13v162.3h-1081.9v-162.3h1081.9m13-13h-1108v188.3h1108v-188.3zM68.1 113.6l7.4-10.5c3.9 3.9 9.9 7.1 17.3 7.1 4.8 0 7.7-1.9 7.7-4.5 0-7.4-30.7-1.5-30.7-22.3 0-9.1 7.7-17.2 21.6-17.2 8.7 0 16.2 2.6 22 7.5l-7.6 10c-4.5-3.7-10.5-5.6-15.8-5.6-4.1 0-5.8 1.6-5.8 3.9 0 6.9 30.6 1.9 30.6 22 0 10.9-8 18.1-22.6 18.1-11 .1-18.6-3.3-24.1-8.5zM142.1 121.2v-41.9h-15.1v-12.2h44.2v12.2h-15.1v41.9h-14zM185.7 121.2v-54.1h39.7v12.2h-25.7v8.4h25.1v12.2h-25.1v9.2h25.7v12.2h-39.7zM243.6 121.2v-54.1h39.7v12.2h-25.7v8.4h25.1v12.2h-25.1v21.3h-14zM333.9 121.2l-2.7-7.8h-21.3l-2.7 7.8h-15.8l20.4-54.1h17.5l20.4 54.1h-15.8zm-13.4-40.3l-6.9 20.4h13.8l-6.9-20.4zM399.8 121.2l-22.9-31.3v31.3h-14v-54.1h14.4l21.9 29.8v-29.8h14v54.1h-13.4zM492.8 121.2l-9.1-18.2h-7.1v18.2h-14v-54.1h27.1c12 0 18.8 8 18.8 18 0 9.4-5.8 14.4-10.8 16.2l11 19.9h-15.9zm1.5-36.2c0-3.7-3.1-5.8-6.7-5.8h-11v11.6h11c3.6.1 6.7-2 6.7-5.8zM525.4 121.2v-54.1h39.7v12.2h-25.7v8.4h25.1v12.2h-25.1v9.2h25.7v12.2h-39.7zM583.4 121.2v-54.1h14v54.1h-14zM653.3 121.2l-22.9-31.3v31.3h-14v-54.1h14.4l21.9 29.8v-29.8h14v54.1h-13.4zM686.1 121.2v-54.1h27.1c12.2 0 18.8 8.2 18.8 18 0 9.7-6.7 17.9-18.8 17.9h-13.2v18.2h-13.9zm31.7-36.1c0-3.7-2.8-5.8-6.5-5.8h-11.3v11.6h11.3c3.7 0 6.5-2.1 6.5-5.8zM776.9 121.2l-9.1-18.2h-7.1v18.2h-14v-54.1h27.1c12 0 18.8 8 18.8 18 0 9.4-5.8 14.4-10.8 16.2l11 19.9h-15.9zm1.6-36.2c0-3.7-3.1-5.8-6.7-5.8h-11v11.6h11c3.6.1 6.7-2 6.7-5.8zM809.6 121.2v-54.1h39.7v12.2h-25.7v8.4h25.1v12.2h-25.1v9.2h25.7v12.2h-39.7zM864 94.2c0-16.7 12.7-28 29.3-28 13.1 0 20 7.4 23.6 14.5l-12 5.7c-1.8-4.3-6.4-7.9-11.6-7.9-8.8 0-15.1 6.8-15.1 15.7s6.2 15.7 15.1 15.7c5.2 0 9.8-3.6 11.6-7.9l12 5.7c-3.5 7-10.5 14.5-23.6 14.5-16.7 0-29.3-11.4-29.3-28zM968.5 121.2v-21.7h-22.5v21.7h-14v-54.1h14v20.2h22.5v-20.2h14v54.1h-14zM1012.2 121.2v-41.9h-15.2v-12.2h44.2v12.2h-15.1v41.9h-13.9z"/></symbol><symbol viewBox="-115 120 412 356.5" id="icon-vimeo"><title>vimeo</title><path d="M296.8 202.5c-1.8 40.1-29.9 95.1-84 164.8-56 72.8-103.4 109.2-142.2 109.2-24 0-44.3-22.2-60.9-66.5l-33.3-122c-12.3-44.3-25.5-66.5-39.7-66.5-3.1 0-13.9 6.5-32.3 19.4l-19.4-25c20.3-17.9 40.4-35.7 60.1-53.6 27.1-23.4 47.5-35.8 61-37 32.1-3.1 51.8 18.8 59.2 65.8 8 50.6 13.5 82.1 16.7 94.5 9.2 42 19.4 63 30.5 63 8.6 0 21.6-13.6 38.9-40.9 17.2-27.3 26.5-48 27.7-62.2 2.5-23.5-6.8-35.3-27.7-35.3-9.9 0-20 2.3-30.5 6.8 20.2-66.3 58.9-98.6 116-96.7 42.4 1 62.3 28.5 59.9 82.2z"/></symbol><symbol viewBox="-114 153.7 412 289.1" id="icon-youtube"><title>youtube</title><path d="M294.4 222.5c-6.5-55-28.3-62.6-71.7-65.6-61.7-4.2-199.6-4.2-261.3 0-43.4 3-65.2 10.5-71.7 65.6-4.8 40.9-4.8 110.6 0 151.6 6.5 55 28.3 62.6 71.7 65.6 61.8 4.2 199.6 4.2 261.3 0 43.4-3 65.2-10.5 71.7-65.6 4.8-40.9 4.8-110.6 0-151.6zm-243.4 133.3v-114.9l110.2 57.5-110.2 57.4z"/></symbol></svg>