<svg style="display: none;"><symbol viewBox="-113.8 167 412 262.3" id="icon-behance"><title>behance</title><path d="M76.2 194.2c7.8 10.9 11.8 23.9 11.8 39.1 0 15.6-4 28.2-11.9 37.7-4.4 5.3-10.9 10.2-19.5 14.6 13.1 4.7 22.9 12.3 29.6 22.6 6.6 10.3 10 22.8 10 37.5 0 15.2-3.8 28.8-11.4 40.8-4.8 8-10.9 14.7-18.1 20.1-8.2 6.2-17.8 10.5-28.9 12.8-11.1 2.3-23.2 3.5-36.2 3.5h-115.3v-255.9h123.6c31.2.4 53.3 9.5 66.3 27.2zm-138.9 17.2v56.4h62.2c11.1 0 20.1-2.1 27.1-6.3s10.4-11.7 10.4-22.5c0-11.9-4.6-19.8-13.7-23.6-7.9-2.7-18-4-30.2-4h-55.8zm0 98.8v68.2h62.1c11.1 0 19.7-1.5 25.9-4.5 11.2-5.6 16.8-16.2 16.8-31.9 0-13.3-5.4-22.5-16.3-27.4-6.1-2.8-14.6-4.2-25.6-4.3l-62.9-.1zm311.5-72.7c13.2 5.9 24.1 15.2 32.7 28 7.7 11.2 12.8 24.3 15.1 39.1 1.3 8.7 1.9 21.2 1.6 37.6h-137.8c.8 19 7.4 32.3 19.8 39.9 7.6 4.7 16.6 7.1 27.3 7.1 11.3 0 20.4-2.9 27.5-8.7 3.8-3.1 7.2-7.5 10.2-13h50.5c-1.3 11.2-7.4 22.6-18.3 34.2-17 18.4-40.7 27.6-71.2 27.6-25.2 0-47.4-7.8-66.6-23.3-19.3-15.5-28.9-40.8-28.9-75.8 0-32.8 8.7-57.9 26.1-75.4 17.4-17.5 39.9-26.2 67.7-26.2 16.3 0 31.1 3 44.3 8.9zm-74 42.7c-7 7.2-11.4 17-13.2 29.3h85.2c-.9-13.1-5.3-23.1-13.2-29.9-7.9-6.8-17.7-10.2-29.3-10.2-12.7 0-22.5 3.6-29.5 10.8zm81.9-98.5h-111.2v25.8h111.2v-25.8z"/></symbol><symbol viewBox="-114.3 145.7 412.5 305.2" id="icon-email"><title>email</title><path d="M-114.3 145.7v305.2h412.59999999999997v-305.2h-412.6zm365.8 35l-159.6 122-159.4-122h319zm-330.8 35.1l85.5 65.4-85.5 85.5v-150.9zm.4 200.1l113.2-113.2 57.7 44.1 57.4-43.9 112.9 112.9-341.2.1zm342.2-48.5l-85.9-85.9 85.9-65.7v151.6z"/></symbol><symbol viewBox="-114.1 92.3 412 412" id="icon-facebook"><title>facebook</title><path d="M247.9 92.3h-312c-27.6 0-50 22.4-50 50v312c0 27.6 22.4 50 50 50h312c27.6 0 50-22.4 50-50v-312c0-27.6-22.3-50-50-50zm-88.2 110.6h-32c-11.3 0-13.6 4.6-13.6 16.3v28.2h45.6l-4.4 49.6h-41.2v148h-59.2v-147.3h-30.7v-50.2h30.7v-39.5c0-37.1 19.8-56.5 63.8-56.5h40.9v51.4z"/></symbol><symbol viewBox="0 0 512 512" id="icon-github"><title>github</title><path d="M256 55.083c-113.764 0-206 92.237-206 206 0 91.013 59.025 168.246 140.887 195.472 10.293 1.911 13.613-4.459 13.613-9.908v-38.356c-57.301 12.473-69.238-24.291-69.238-24.291-9.354-23.822-22.865-30.159-22.865-30.159-18.693-12.774 1.408-12.523 1.408-12.523 20.688 1.459 31.584 21.24 31.584 21.24 18.373 31.483 48.18 22.381 59.949 17.117 1.844-13.312 7.174-22.397 13.076-27.544-45.768-5.197-93.848-22.867-93.848-101.81 0-22.498 8.047-40.872 21.225-55.289-2.146-5.197-9.188-26.152 1.979-54.518 0 0 17.301-5.532 56.662 21.123 16.445-4.56 34.066-6.856 51.568-6.94 17.502.084 35.154 2.381 51.6 6.94 39.33-26.655 56.596-21.123 56.596-21.123 11.217 28.365 4.158 49.32 2.029 54.518 13.211 14.417 21.207 32.791 21.207 55.289 0 79.127-48.197 96.545-94.064 101.642 7.375 6.388 14.133 18.943 14.133 38.155v56.529c0 5.482 3.301 11.903 13.746 9.892 81.81-27.275 140.753-104.459 140.753-195.455 0-113.763-92.238-206.001-206-206.001z"/></symbol><symbol viewBox="51.7 276.4 739.4 42.6" id="icon-logo_quer_schwarz"><title>logo_quer_schwarz</title><path d="M51.7 312.4l5.6-8c3 3 7.5 5.4 13.1 5.4 3.6 0 5.9-1.4 5.9-3.4 0-5.6-23.3-1.1-23.3-16.9 0-6.9 5.9-13.1 16.4-13.1 6.6 0 12.3 2 16.7 5.7l-5.8 7.6c-3.4-2.8-8-4.3-12-4.3-3.1 0-4.4 1.2-4.4 3 0 5.2 23.3 1.4 23.3 16.7 0 8.3-6.1 13.8-17.2 13.8-8.3.1-14.1-2.5-18.3-6.5zm56.3 5.8v-31.8h-11.5v-9.3h33.6v9.3h-11.5v31.8h-10.6zm33.1 0v-41.1h30.2v9.3h-19.5v6.4h19.1v9.3h-19.1v7h19.5v9.3l-30.2-.2zm44 0v-41.1h30.2v9.3h-19.5v6.4h19.1v9.3h-19.1v16.2h-10.7zm68.6 0l-2.1-5.9h-16.2l-2.1 5.9h-12l15.5-41.1h13.3l15.5 41.1h-11.9zm-10.2-30.6l-5.2 15.5h10.5l-5.3-15.5zm60.3 30.6l-17.4-23.8v23.8h-10.6v-41.1h10.9l16.6 22.6v-22.6h10.7v41.1h-10.2zm70.6 0l-6.9-13.8h-5.4v13.8h-10.6v-41.1h20.6c9.1 0 14.3 6.1 14.3 13.7 0 7.1-4.4 10.9-8.2 12.3l8.4 15.1h-12.2zm1.2-27.5c0-2.8-2.4-4.4-5.1-4.4h-8.4v8.8h8.4c2.7.1 5.1-1.5 5.1-4.4zm23.6 27.5v-41.1h30.2v9.3h-19.5v6.4h19.1v9.3h-19.1v7h19.5v9.3l-30.2-.2zm44.1 0v-41.1h10.6v41.1h-10.6zm53.1 0l-17.4-23.8v23.8h-10.6v-41.1h10.9l16.6 22.6v-22.6h10.6v41.1h-10.1zm24.9 0v-41.1h20.6c9.3 0 14.3 6.2 14.3 13.7 0 7.4-5.1 13.6-14.3 13.6h-10v13.8h-10.6zm24.1-27.4c0-2.8-2.1-4.4-4.9-4.4h-8.6v8.8h8.6c2.8 0 4.9-1.6 4.9-4.4zm44.9 27.4l-6.9-13.8h-5.4v13.8h-10.6v-41.1h20.6c9.1 0 14.3 6.1 14.3 13.7 0 7.1-4.4 10.9-8.2 12.3l8.4 15.1h-12.2zm1.2-27.5c0-2.8-2.4-4.4-5.1-4.4h-8.4v8.8h8.4c2.8.1 5.1-1.5 5.1-4.4zm23.7 27.5v-41.1h30.2v9.3h-19.5v6.4h19.1v9.3h-19.1v7h19.5v9.3l-30.2-.2zm41.3-20.5c0-12.7 9.6-21.3 22.3-21.3 10 0 15.2 5.6 17.9 11l-9.1 4.3c-1.4-3.3-4.9-6-8.8-6-6.7 0-11.5 5.2-11.5 11.9 0 6.8 4.7 11.9 11.5 11.9 4 0 7.4-2.7 8.8-6l9.1 4.3c-2.7 5.3-8 11-17.9 11-12.7.2-22.3-8.5-22.3-21.1zm79.4 20.5v-16.5h-17.1v16.5h-10.6v-41.1h10.6v15.3h17.1v-15.3h10.6v41.1h-10.6zm33.2 0v-31.8h-11.5v-9.3h33.6v9.3h-11.5v31.8h-10.6z"/></symbol><symbol viewBox="0 0 461.1 461.1" id="icon-logo_square_schwarz"><title>logo_square_schwarz</title><path d="M443.4 17.7v425.7h-425.7v-425.7h425.7m17.7-17.7h-461.1v461.1h461.1v-461.1zm-390.2 132.2l7.8-12.6c5 4.7 15.2 9.4 23.7 9.4 7.8 0 11.5-3.1 11.5-7.4 0-11.4-40.7-2.1-40.7-29.1 0-11.5 10.1-21.6 28.1-21.6 11.6 0 20.9 4 27.7 9.4l-7.2 12.3c-4.1-4.4-11.9-7.9-20.3-7.9-6.5 0-10.8 3-10.8 6.8 0 10.2 40.6 1.7 40.6 29.4 0 12.5-10.6 22-29.7 22-11.9 0-23.4-4-30.7-10.7zm279.4 258v-68.5h18v9.4c4.8-6.1 13.3-11.1 21.9-11.1v17.6c-1.3-.3-3-.4-5-.4-6 0-13.9 3.4-16.9 7.8v45.3h-18zm-161.4-112.7l88.6-88.6"/><path d="M271.185 182.634l12.516 12.516-88.6 88.6-12.516-12.516z"/></symbol><symbol viewBox="0 0 512 512" id="icon-twitter"><title>twitter</title><path d="M462 128.223c-15.158 6.724-31.449 11.269-48.547 13.31 17.449-10.461 30.854-27.025 37.164-46.764-16.333 9.687-34.422 16.721-53.676 20.511-15.418-16.428-37.386-26.691-61.698-26.691-54.56 0-94.668 50.916-82.337 103.787-70.25-3.524-132.534-37.177-174.223-88.314-22.142 37.983-11.485 87.691 26.158 112.85-13.854-.438-26.891-4.241-38.285-10.574-.917 39.162 27.146 75.781 67.795 83.949-11.896 3.237-24.926 3.978-38.17 1.447 10.754 33.58 41.972 58.018 78.96 58.699-35.537 27.849-80.295 40.288-125.141 35.003 37.406 23.982 81.837 37.977 129.571 37.977 156.932 0 245.595-132.551 240.251-251.435 16.517-11.917 30.846-26.804 42.178-43.755z"/></symbol><symbol viewBox="-115 120 412 356.5" id="icon-vimeo"><title>vimeo</title><path d="M296.8 202.5c-1.8 40.1-29.9 95.1-84 164.8-56 72.8-103.4 109.2-142.2 109.2-24 0-44.3-22.2-60.9-66.5l-33.3-122c-12.3-44.3-25.5-66.5-39.7-66.5-3.1 0-13.9 6.5-32.3 19.4l-19.4-25c20.3-17.9 40.4-35.7 60.1-53.6 27.1-23.4 47.5-35.8 61-37 32.1-3.1 51.8 18.8 59.2 65.8 8 50.6 13.5 82.1 16.7 94.5 9.2 42 19.4 63 30.5 63 8.6 0 21.6-13.6 38.9-40.9 17.2-27.3 26.5-48 27.7-62.2 2.5-23.5-6.8-35.3-27.7-35.3-9.9 0-20 2.3-30.5 6.8 20.2-66.3 58.9-98.6 116-96.7 42.4 1 62.3 28.5 59.9 82.2z"/></symbol><symbol viewBox="-114 153.7 412 289.1" id="icon-youtube"><title>youtube</title><path d="M294.4 222.5c-6.5-55-28.3-62.6-71.7-65.6-61.7-4.2-199.6-4.2-261.3 0-43.4 3-65.2 10.5-71.7 65.6-4.8 40.9-4.8 110.6 0 151.6 6.5 55 28.3 62.6 71.7 65.6 61.8 4.2 199.6 4.2 261.3 0 43.4-3 65.2-10.5 71.7-65.6 4.8-40.9 4.8-110.6 0-151.6zm-243.4 133.3v-114.9l110.2 57.5-110.2 57.4z"/></symbol></svg>