<svg style="display: none;"><symbol viewBox="0 0 512 512" id="icon-behance"><title>behance</title><path d="M235.591 281.921c0 9.365-3.334 15.7-10.005 19.005-3.677 1.792-8.817 2.686-15.418 2.686h-36.964v-40.593h37.474c6.536.071 11.604.931 15.216 2.583 6.463 2.96 9.697 8.4 9.697 16.319zm-9.283-47.875c4.123-2.513 6.186-6.972 6.186-13.375 0-7.094-2.726-11.776-8.178-14.048-4.703-1.584-10.699-2.376-17.992-2.376h-33.119v33.57h37.004c6.609 0 11.977-1.257 16.099-3.771zm236.109 21.954c0 113.771-92.229 206-206 206s-206-92.229-206-206 92.229-206 206-206 206 92.229 206 206zm-165.322-54.071h66.154v-15.376h-66.154v15.376zm-29.379 82.161c0-8.744-1.977-16.182-5.932-22.31-3.954-6.128-9.818-10.605-17.588-13.428 5.116-2.617 8.984-5.508 11.614-8.676 4.699-5.646 7.051-13.118 7.051-22.414 0-9.021-2.33-16.767-6.989-23.24-7.74-10.536-20.893-15.941-39.457-16.217h-73.578v152.25h68.602c7.734 0 14.906-.688 21.514-2.066 6.606-1.376 12.34-3.924 17.202-7.643 4.313-3.236 7.907-7.229 10.782-11.981 4.518-7.163 6.779-15.255 6.779-24.275zm119.275-24.41c-1.367-8.829-4.357-16.586-8.967-23.274-5.116-7.587-11.604-13.138-19.457-16.656-7.852-3.518-16.682-5.277-26.477-5.277-16.5 0-29.923 5.206-40.261 15.611-10.342 10.407-15.511 25.363-15.511 44.864 0 20.817 5.727 35.84 17.182 45.076 11.453 9.234 24.672 13.853 39.655 13.853 18.152 0 32.272-5.475 42.358-16.424 6.482-6.888 10.119-13.67 10.912-20.345h-30.055c-1.754 3.302-3.773 5.886-6.059 7.743-4.191 3.444-9.641 5.164-16.346 5.164-6.326 0-11.733-1.41-16.229-4.236-7.393-4.544-11.317-12.461-11.773-23.756h81.998c.146-9.722-.175-17.169-.97-22.343zm-37.429-14.863c-4.694-4.047-10.514-6.071-17.463-6.071-7.555 0-13.408 2.147-17.57 6.434-4.161 4.289-6.772 10.096-7.841 17.428h50.716c-.538-7.817-3.151-13.745-7.842-17.791z"/></symbol><symbol viewBox="0 0 512 512" id="icon-email"><title>email</title><path d="M256 50c-113.771 0-206 92.229-206 206s92.229 206 206 206 206-92.229 206-206-92.229-206-206-206zm123.956 114.444l-122.951 94.297-122.755-94.297h245.706zm-246.557 25.828l72.327 55.559-72.327 72.327v-127.886zm.301 157.283l88.821-88.821 34.474 26.48 34.418-26.396 88.738 88.736h-246.451zm246.9-29.248l-72.38-72.38 72.38-55.511v127.891z"/></symbol><symbol viewBox="0 0 512 512" id="icon-facebook"><title>facebook</title><path d="M256.417 50c-113.771 0-206 92.229-206 206s92.229 206 206 206 206-92.229 206-206-92.229-206-206-206zm60.968 121.192h-28.789c-10.162 0-12.28 4.163-12.28 14.678v25.404h41.069l-3.951 44.596h-37.118v133.227h-53.2v-132.662h-27.666v-45.16h27.666v-35.565c0-33.379 17.849-50.807 57.437-50.807h36.833v46.289z"/></symbol><symbol viewBox="0 0 512 512" id="icon-github"><title>github</title><path d="M256 55.083c-113.764 0-206 92.237-206 206 0 91.013 59.025 168.246 140.887 195.472 10.293 1.911 13.613-4.459 13.613-9.908v-38.356c-57.301 12.473-69.238-24.291-69.238-24.291-9.354-23.822-22.865-30.159-22.865-30.159-18.693-12.774 1.408-12.523 1.408-12.523 20.688 1.459 31.584 21.24 31.584 21.24 18.373 31.483 48.18 22.381 59.949 17.117 1.844-13.312 7.174-22.397 13.076-27.544-45.768-5.197-93.848-22.867-93.848-101.81 0-22.498 8.047-40.872 21.225-55.289-2.146-5.197-9.188-26.152 1.979-54.518 0 0 17.301-5.532 56.662 21.123 16.445-4.56 34.066-6.856 51.568-6.94 17.502.084 35.154 2.381 51.6 6.94 39.33-26.655 56.596-21.123 56.596-21.123 11.217 28.365 4.158 49.32 2.029 54.518 13.211 14.417 21.207 32.791 21.207 55.289 0 79.127-48.197 96.545-94.064 101.642 7.375 6.388 14.133 18.943 14.133 38.155v56.529c0 5.482 3.301 11.903 13.746 9.892 81.81-27.275 140.753-104.459 140.753-195.455 0-113.763-92.238-206.001-206-206.001z"/></symbol><symbol viewBox="0 0 973.1 56" id="icon-logo_primary"><title>logo_primary</title><path d="M0 47.4l7.4-10.5c3.9 3.9 9.9 7.1 17.3 7.1 4.8 0 7.7-1.9 7.7-4.5 0-7.4-30.7-1.5-30.7-22.3 0-9.1 7.7-17.2 21.6-17.2 8.7 0 16.2 2.6 22 7.5l-7.6 10c-4.6-3.6-10.5-5.5-15.9-5.5-4.1 0-5.8 1.6-5.8 3.9 0 6.9 30.6 1.9 30.6 22 0 10.9-8 18.1-22.6 18.1-10.9 0-18.6-3.4-24-8.6zM74 55v-41.9h-15.2v-12.2h44.2v12.2h-15v41.9h-14zM117.6 55v-54.1h39.7v12.2h-25.7v8.4h25.1v12.2h-25.1v9.2h25.7v12.1h-39.7zM175.5 55v-54.1h39.7v12.2h-25.7v8.4h25.1v12.2h-25.1v21.3h-14zM265.8 55l-2.7-7.8h-21.3l-2.7 7.8h-15.8l20.4-54.1h17.5l20.4 54.1h-15.8zm-13.4-40.3l-6.9 20.3h13.8l-6.9-20.3zM331.7 55l-22.9-31.3v31.3h-14v-54.1h14.4l21.9 29.8v-29.8h14v54.1h-13.4zM424.7 55l-9.1-18.2h-7.1v18.2h-14v-54.1h27.1c12 0 18.8 8 18.8 18 0 9.4-5.8 14.4-10.8 16.2l11 19.9h-15.9zm1.5-36.2c0-3.7-3.1-5.8-6.7-5.8h-11v11.6h11c3.6.1 6.7-2 6.7-5.8zM457.3 55v-54.1h39.7v12.2h-25.7v8.4h25.1v12.2h-25.1v9.2h25.7v12.1h-39.7zM515.3 55v-54.1h14v54.1h-14zM585.2 55l-22.9-31.3v31.3h-14v-54.1h14.4l21.9 29.8v-29.8h14v54.1h-13.4zM617.9 55v-54.1h27.1c12.2 0 18.8 8.2 18.8 18 0 9.7-6.7 17.9-18.8 17.9h-13.1v18.2h-14zm31.8-36.1c0-3.7-2.8-5.8-6.5-5.8h-11.3v11.6h11.3c3.7 0 6.5-2.1 6.5-5.8zM708.8 55l-9.1-18.2h-7.1v18.2h-14v-54.1h27.1c12 0 18.8 8 18.8 18 0 9.4-5.8 14.4-10.8 16.2l11 19.9h-15.9zm1.5-36.2c0-3.7-3.1-5.8-6.7-5.8h-11v11.6h11c3.7.1 6.7-2 6.7-5.8zM741.5 55v-54.1h39.7v12.2h-25.7v8.4h25.1v12.2h-25.1v9.2h25.7v12.1h-39.7zM795.8 28c0-16.7 12.7-28 29.3-28 13.1 0 20 7.4 23.6 14.5l-12 5.7c-1.8-4.3-6.4-7.9-11.6-7.9-8.8 0-15.1 6.8-15.1 15.7s6.2 15.7 15.1 15.7c5.2 0 9.8-3.6 11.6-7.9l12 5.7c-3.5 7-10.5 14.5-23.6 14.5-16.6 0-29.3-11.4-29.3-28zM900.4 55v-21.7h-22.5v21.7h-14v-54.1h14v20.2h22.5v-20.2h14v54.1h-14zM944.1 55v-41.9h-15.2v-12.2h44.2v12.2h-15.1v41.9h-13.9z"/></symbol><symbol viewBox="0 0 973.1 56" id="icon-logo_quer_schwarz"><title>logo_quer_schwarz</title><path d="M0 47.4l7.4-10.5c3.9 3.9 9.9 7.1 17.3 7.1 4.8 0 7.7-1.9 7.7-4.5 0-7.4-30.7-1.5-30.7-22.3 0-9.1 7.7-17.2 21.6-17.2 8.7 0 16.2 2.6 22 7.5l-7.6 10c-4.6-3.6-10.5-5.5-15.9-5.5-4.1 0-5.8 1.6-5.8 3.9 0 6.9 30.6 1.9 30.6 22 0 10.9-8 18.1-22.6 18.1-10.9 0-18.6-3.4-24-8.6zm74 7.6v-41.9h-15.2v-12.2h44.2v12.2h-15v41.9h-14zm43.6 0v-54.1h39.7v12.2h-25.7v8.4h25.1v12.2h-25.1v9.2h25.7v12.1h-39.7zm57.9 0v-54.1h39.7v12.2h-25.7v8.4h25.1v12.2h-25.1v21.3h-14zm90.3 0l-2.7-7.8h-21.3l-2.7 7.8h-15.8l20.4-54.1h17.5l20.4 54.1h-15.8zm-13.4-40.3l-6.9 20.3h13.8l-6.9-20.3zm79.3 40.3l-22.9-31.3v31.3h-14v-54.1h14.4l21.9 29.8v-29.8h14v54.1h-13.4zm93 0l-9.1-18.2h-7.1v18.2h-14v-54.1h27.1c12 0 18.8 8 18.8 18 0 9.4-5.8 14.4-10.8 16.2l11 19.9h-15.9zm1.5-36.2c0-3.7-3.1-5.8-6.7-5.8h-11v11.6h11c3.6.1 6.7-2 6.7-5.8zm31.1 36.2v-54.1h39.7v12.2h-25.7v8.4h25.1v12.2h-25.1v9.2h25.7v12.1h-39.7zm58 0v-54.1h14v54.1h-14zm69.9 0l-22.9-31.3v31.3h-14v-54.1h14.4l21.9 29.8v-29.8h14v54.1h-13.4zm32.7 0v-54.1h27.1c12.2 0 18.8 8.2 18.8 18 0 9.7-6.7 17.9-18.8 17.9h-13.1v18.2h-14zm31.8-36.1c0-3.7-2.8-5.8-6.5-5.8h-11.3v11.6h11.3c3.7 0 6.5-2.1 6.5-5.8zm59.1 36.1l-9.1-18.2h-7.1v18.2h-14v-54.1h27.1c12 0 18.8 8 18.8 18 0 9.4-5.8 14.4-10.8 16.2l11 19.9h-15.9zm1.5-36.2c0-3.7-3.1-5.8-6.7-5.8h-11v11.6h11c3.7.1 6.7-2 6.7-5.8zm31.2 36.2v-54.1h39.7v12.2h-25.7v8.4h25.1v12.2h-25.1v9.2h25.7v12.1h-39.7zm54.3-27c0-16.7 12.7-28 29.3-28 13.1 0 20 7.4 23.6 14.5l-12 5.7c-1.8-4.3-6.4-7.9-11.6-7.9-8.8 0-15.1 6.8-15.1 15.7s6.2 15.7 15.1 15.7c5.2 0 9.8-3.6 11.6-7.9l12 5.7c-3.5 7-10.5 14.5-23.6 14.5-16.6 0-29.3-11.4-29.3-28zm104.6 27v-21.7h-22.5v21.7h-14v-54.1h14v20.2h22.5v-20.2h14v54.1h-14zm43.7 0v-41.9h-15.2v-12.2h44.2v12.2h-15.1v41.9h-13.9z"/></symbol><symbol viewBox="0 0 461.1 461.1" id="icon-logo_square_schwarz"><title>logo_square_schwarz</title><path d="M443.4 17.7v425.7h-425.7v-425.7h425.7m17.7-17.7h-461.1v461.1h461.1v-461.1zm-390.2 132.2l7.8-12.6c5 4.7 15.2 9.4 23.7 9.4 7.8 0 11.5-3.1 11.5-7.4 0-11.4-40.7-2.1-40.7-29.1 0-11.5 10.1-21.6 28.1-21.6 11.6 0 20.9 4 27.7 9.4l-7.2 12.3c-4.1-4.4-11.9-7.9-20.3-7.9-6.5 0-10.8 3-10.8 6.8 0 10.2 40.6 1.7 40.6 29.4 0 12.5-10.6 22-29.7 22-11.9 0-23.4-4-30.7-10.7zm279.4 258v-68.5h18v9.4c4.8-6.1 13.3-11.1 21.9-11.1v17.6c-1.3-.3-3-.4-5-.4-6 0-13.9 3.4-16.9 7.8v45.3h-18zm-161.4-112.7l88.6-88.6"/><path d="M271.185 182.634l12.516 12.516-88.6 88.6-12.516-12.516z"/></symbol><symbol viewBox="0 0 512 512" id="icon-twitter"><title>twitter</title><path d="M256 50c-113.771 0-206 92.229-206 206s92.229 206 206 206 206-92.229 206-206-92.229-206-206-206zm103.599 170.506c3.021 67.199-47.096 142.124-135.802 142.124-26.981 0-52.096-7.911-73.238-21.466 25.347 2.987 50.646-4.044 70.734-19.786-20.907-.386-38.554-14.198-44.632-33.181 7.486 1.432 14.851 1.013 21.575-.816-22.976-4.617-38.839-25.317-38.321-47.453 6.44 3.58 13.81 5.729 21.642 5.977-21.278-14.221-27.303-42.318-14.785-63.789 23.563 28.906 58.77 47.928 98.478 49.92-6.969-29.886 15.702-58.667 46.542-58.667 13.742 0 26.16 5.802 34.874 15.088 10.884-2.143 21.108-6.119 30.341-11.594-3.567 11.157-11.144 20.521-21.008 26.433 9.665-1.153 18.874-3.722 27.441-7.523-6.405 9.582-14.505 17.998-23.841 24.733z"/></symbol><symbol viewBox="0 0 512 512" id="icon-vimeo"><title>vimeo</title><path d="M256 50c-113.771 0-206 92.229-206 206s92.229 206 206 206 206-92.229 206-206-92.229-206-206-206zm120.171 161.68c-1.104 24.011-17.866 56.89-50.29 98.621-33.527 43.589-61.893 65.385-85.094 65.385-14.369 0-26.536-13.268-36.471-39.82-6.636-24.336-13.269-48.672-19.901-73.007-7.378-26.538-15.292-39.821-23.756-39.821-1.843 0-8.3 3.884-19.35 11.618l-11.602-14.951c12.168-10.696 24.174-21.392 35.985-32.102 16.229-14.028 28.414-21.407 36.536-22.153 19.189-1.843 31.003 11.279 35.436 39.37 4.788 30.306 8.106 49.155 9.967 56.532 5.532 25.146 11.616 37.705 18.266 37.705 5.161 0 12.913-8.156 23.252-24.466 10.322-16.312 15.859-28.722 16.602-37.249 1.475-14.078-4.062-21.133-16.602-21.133-5.905 0-11.989 1.36-18.251 4.045 12.119-39.707 35.272-58.995 69.447-57.896 25.338.748 37.281 17.186 35.826 49.322z"/></symbol><symbol viewBox="-114 153.7 412 289.1" id="icon-youtube"><title>youtube</title><path d="M294.4 222.5c-6.5-55-28.3-62.6-71.7-65.6-61.7-4.2-199.6-4.2-261.3 0-43.4 3-65.2 10.5-71.7 65.6-4.8 40.9-4.8 110.6 0 151.6 6.5 55 28.3 62.6 71.7 65.6 61.8 4.2 199.6 4.2 261.3 0 43.4-3 65.2-10.5 71.7-65.6 4.8-40.9 4.8-110.6 0-151.6zm-243.4 133.3v-114.9l110.2 57.5-110.2 57.4z"/></symbol></svg>